v -0.25 -0.25 0.25
vn -0.3333333433 -0.6666666865 0.6666666865
v -0.25 -0.25 -0.25
vn -0.8164966106 -0.4082483053 -0.4082483053
v 0.25 -0.25 -0.25
vn 0.3333333433 -0.6666666865 -0.6666666865
v 0.25 -0.25 0.25
vn 0.8164966106 -0.4082483053 0.4082483053
v -0.25 0.25 0.25
vn -0.8164966106 0.4082483053 0.4082483053
v -0.25 0.25 -0.25
vn -0.3333333433 0.6666666865 -0.6666666865
v 0.25 0.25 -0.25
vn 0.8164966106 0.4082483053 -0.4082483053
v 0.25 0.25 0.25
vn 0.3333333433 0.6666666865 0.6666666865
# mm_gid 0
g mmGroup0
f 5//5 6//6 2//2 
f 5//5 2//2 1//1 
f 6//6 7//7 3//3 
f 6//6 3//3 2//2 
f 7//7 8//8 4//4 
f 7//7 4//4 3//3 
f 8//8 5//5 1//1 
f 8//8 1//1 4//4 
f 1//1 2//2 3//3 
f 1//1 3//3 4//4 
f 8//8 7//7 6//6 
f 8//8 6//6 5//5 
