v -0.2524999976 0.5024999976 0.2524999976
vn -0.8164966106 0.4082483053 0.4082483053
v -0.2524999976 0.5024999976 -0.2524999976
vn -0.3333333433 0.6666666865 -0.6666666865
v -0.2524999976 -0.002499997616 -0.2524999976
vn -0.8164966106 -0.4082483053 -0.4082483053
v -0.2524999976 -0.002499997616 0.2524999976
vn -0.3333333433 -0.6666666865 0.6666666865
v 0.2524999976 0.5024999976 -0.2524999976
vn 0.8164966106 0.4082483053 -0.4082483053
v 0.2524999976 -0.002499997616 -0.2524999976
vn 0.3333333433 -0.6666666865 -0.6666666865
v 0.2524999976 0.5024999976 0.2524999976
vn 0.3333333433 0.6666666865 0.6666666865
v 0.2524999976 -0.002499997616 0.2524999976
vn 0.8164966106 -0.4082483053 0.4082483053
# mm_gid 0
g mmGroup0
f 1//1 2//2 3//3 
f 1//1 3//3 4//4 
f 2//2 5//5 6//6 
f 2//2 6//6 3//3 
f 5//5 7//7 8//8 
f 5//5 8//8 6//6 
f 7//7 1//1 4//4 
f 7//7 4//4 8//8 
f 4//4 3//3 6//6 
f 4//4 6//6 8//8 
f 7//7 5//5 2//2 
f 7//7 2//2 1//1 
